<?xml version="1.0" encoding="utf-8"?>
<!-- Generator: Adobe Illustrator 24.1.3, SVG Export Plug-In . SVG Version: 6.00 Build 0)  -->
<svg version="1.1" id="Calque_1" xmlns="http://www.w3.org/2000/svg" xmlns:xlink="http://www.w3.org/1999/xlink" x="0px" y="0px"
	 viewBox="0 0 40 40" style="enable-background:new 0 0 40 40;" xml:space="preserve">
<style type="text/css">
	.st0{fill:#7783F7;}
</style>
<g>
	<path class="st0" d="M30.1,17c-0.9-5.3-3.4-10.9-7.3-16.6C22.7,0.2,22.4,0,22.1,0c-0.3,0-0.6,0.1-0.8,0.4
		c-0.2,0.3-5.1,6.4-8.5,14.3c-2,4.7-3.1,9-3.2,12.8c-0.1,4.9,1.3,9,4.3,12.2c0.2,0.2,0.5,0.3,0.7,0.3c0.3,0,0.5-0.1,0.7-0.4l3.3-4
		l2.6,3.9c0.2,0.2,0.4,0.4,0.7,0.4c0,0,0.1,0,0.1,0c0.2,0,0.4-0.1,0.6-0.2c0.2-0.1,4.5-3.7,6.6-10.4C30.6,25.5,30.8,21.3,30.1,17z
		 M27.5,28.7c-1.4,4.5-4,7.5-5.3,8.8l-2.7-4c-0.2-0.3-0.5-0.4-0.8-0.4c0,0,0,0,0,0c-0.3,0-0.6,0.1-0.7,0.4l-3.3,4.1
		c-2.2-2.7-3.2-6-3.1-9.9c0.1-3.6,1.1-7.6,3.1-12.1c2-4.5,4.5-8.6,6.2-11.1l-2.4,25.8c0,0.5,0.3,1,0.9,1.1c0,0,0.1,0,0.1,0
		c0.5,0,0.9-0.4,1-0.9l2.4-26.6c2.9,4.6,4.7,9.1,5.4,13.4C28.9,21.2,28.6,25.1,27.5,28.7z"/>
	<path class="st0" d="M16.1,24.8C16.1,24.8,16.1,24.8,16.1,24.8c-2.9-0.1-4.1-2.4-5.1-4.6c-0.9-1.8-1.7-3.5-3.4-4.1
		C6.9,16,6.3,16,5.8,16.3C4.2,17.2,3.3,20,3.1,21C3,21.6,2.5,21.9,2,21.8c-0.5-0.1-0.9-0.6-0.7-1.1c0.1-0.5,1-4.6,3.6-6
		c1-0.6,2.2-0.7,3.4-0.3c2.4,0.8,3.5,3.1,4.5,5c1.1,2.1,1.8,3.4,3.4,3.5c1.4,0,3.5-1.5,5.7-3.1c3.5-2.6,7.5-5.6,12-4.8
		c2.4,0.4,3.6,1.8,4.2,2.9c0.6,1.1,0.7,2.2,0.8,2.3c0,0.5-0.4,1-0.9,1c-0.5,0-1-0.4-1-0.9c0-0.1-0.3-2.9-3.4-3.4
		c-3.6-0.7-7.3,2.1-10.5,4.4C20.4,23.2,18.2,24.8,16.1,24.8z"/>
</g>
</svg>
